<svg width="100%" height="100%" viewBox="0 0 800 600" preserveAspectRatio="xMidYMid slice" fill="none" xmlns="http://www.w3.org/2000/svg">
  <!-- Define a filter for the blur effect -->
  <defs>
    <filter id="blurFilter" x="-10%" y="-10%" width="120%" height="120%">
      <feGaussianBlur in="SourceGraphic" stdDeviation="15" /> <!-- Increased blur deviation -->
    </filter>
  </defs>

  <!-- Dark Background -->
  <rect x="0" y="0" width="800" height="600" fill="#121212"/>

  <!-- Apply the blur filter to a group containing all colored swaths -->
  <g filter="url(#blurFilter)">
    <!-- Golden Black/Dark Grey Swath -->
    <path d="M0 0 Q400 50, 400 300 Q400 550, 0 600 Z" fill="#000000" opacity="0.25"/> <!-- Decreased opacity -->
    <path d="M100 0 Q450 100, 500 350 Q550 500, 200 600 Z" fill="#121212" opacity="0.2"/> <!-- Decreased opacity -->

    <!-- Soft Pink/Beige Swath - Mimicking the light pink/white area -->
    <path d="M0 300 C150 250, 300 300, 400 350 C500 400, 650 350, 800 400 V600 H0 Z" fill="#6D2F74" opacity="0.1"/> <!-- Decreased opacity -->
    <path d="M0 450 C100 400, 200 450, 300 500 C400 550, 500 500, 600 550 C700 600, 800 550, 800 600 H0 Z" fill="#644F7D" opacity="0.08"/> <!-- Decreased opacity -->

    <!-- Blue Swaths - Mimicking the blue accents -->
    <path d="M0 200 Q100 150, 200 200 T300 250 C350 260, 400 220, 450 180 Q500 150, 550 170 Q600 200, 650 230 C700 260, 750 280, 800 250 V0 H0 Z" fill="#42A5F5" opacity="0.15"/> <!-- Decreased opacity -->
    <path d="M50 250 Q120 200, 250 230 T400 280 C450 290, 500 250, 550 210 Q600 180, 650 200 C700 230, 750 250, 800 220" fill="#2196F3" opacity="0.12"/> <!-- Decreased opacity -->

    <!-- Green Accents -->
    <path d="M600 0 C550 50, 500 100, 450 150 C400 200, 350 250, 300 300 Q350 320, 400 300 Q450 280, 500 250 T600 200 Q700 150, 800 100 V0 Z" fill="#204620" opacity="0.12"/> <!-- Decreased opacity -->
    <path d="M700 100 Q650 150, 600 200 T550 250 Q500 280, 450 260 T400 220 Q350 180, 300 150" fill="#132A13" opacity="0.08"/> <!-- Decreased opacity -->
  </g>

  <!-- Lighter "Brushstroke" Overlays for texture (remain unblurred for subtle detail) -->
  <path d="M10 100 C150 50, 250 150, 350 100 Q450 50, 550 100 T750 150" stroke="#FFFFFF" stroke-width="1" opacity="0.03" fill="none"/> <!-- Decreased opacity -->
  <path d="M790 500 C650 550, 550 450, 450 500 Q350 550, 250 500 T50 450" stroke="#FFFFFF" stroke-width="1" opacity="0.03" fill="none"/> <!-- Decreased opacity -->
</svg>
